<svg width="36" height="36" viewBox="0 0 36 36" fill="none" xmlns="http://www.w3.org/2000/svg">
<path fill-rule="evenodd" clip-rule="evenodd" d="M18.0001 32.4C25.953 32.4 32.4001 25.9529 32.4001 18C32.4001 10.0471 25.953 3.59998 18.0001 3.59998C10.0472 3.59998 3.6001 10.0471 3.6001 18C3.6001 25.9529 10.0472 32.4 18.0001 32.4ZM24.6729 15.6728C25.3758 14.9698 25.3758 13.8301 24.6729 13.1272C23.9699 12.4242 22.8302 12.4242 22.1273 13.1272L16.2001 19.0544L13.8729 16.7272C13.1699 16.0242 12.0302 16.0242 11.3273 16.7272C10.6244 17.4301 10.6244 18.5698 11.3273 19.2728L14.9273 22.8728C15.6302 23.5757 16.7699 23.5757 17.4729 22.8728L24.6729 15.6728Z" fill="#4C3DFF"/>
</svg>
